<?xml version="1.0" standalone="no"?>
<!DOCTYPE svg PUBLIC "-//W3C//DTD SVG 20010904//EN"
 "http://www.w3.org/TR/2001/REC-SVG-20010904/DTD/svg10.dtd">
<svg version="1.0" xmlns="http://www.w3.org/2000/svg"
 width="590.000000pt" height="590.000000pt" viewBox="0 0 590.000000 590.000000"
 preserveAspectRatio="xMidYMid meet">
<metadata>
Created by potrace 1.14, written by Peter Selinger 2001-2017
</metadata>
<g transform="translate(0.000000,590.000000) scale(0.100000,-0.100000)"
fill="#000000" stroke="none">
<path d="M4030 5811 c-32 -12 -190 -61 -210 -66 -8 -2 -55 -16 -105 -30 -49
-15 -99 -29 -110 -32 -38 -8 -50 -11 -50 -13 0 -2 -16 -5 -130 -29 -27 -6 -59
-12 -70 -15 -12 -2 -48 -7 -80 -11 -33 -4 -69 -9 -80 -12 -11 -2 -53 -6 -93
-8 -39 -3 -144 -23 -233 -46 -88 -22 -168 -42 -177 -44 -9 -2 -109 -27 -222
-55 -113 -29 -212 -53 -220 -55 -8 -2 -35 -8 -60 -15 -25 -7 -56 -14 -69 -17
-14 -2 -28 -6 -33 -9 -5 -3 -20 -8 -35 -10 -15 -3 -134 -32 -264 -65 -131 -32
-246 -59 -256 -59 -10 0 -42 -15 -72 -33 -29 -17 -62 -37 -71 -42 -10 -6 -25
-17 -34 -24 -9 -7 -16 -10 -16 -5 -1 5 -7 -2 -15 -17 -20 -36 -52 -173 -60
-249 -3 -36 -8 -87 -11 -115 -5 -47 -9 -95 -19 -191 -2 -23 -13 -60 -24 -82
-21 -41 -21 -45 -36 -382 -13 -293 -12 -281 -38 -286 -7 -1 -28 -5 -47 -8 -56
-10 -360 -86 -410 -103 -25 -8 -54 -17 -65 -19 -11 -2 -53 -15 -92 -28 -40
-14 -73 -22 -73 -19 0 3 -6 1 -12 -4 -7 -5 -42 -20 -78 -32 -141 -49 -282
-117 -329 -158 -41 -37 -36 -63 17 -89 46 -22 161 -52 227 -60 28 -3 53 -8 56
-10 19 -12 283 -37 396 -38 35 -1 63 -3 63 -6 0 -3 120 -6 267 -5 l267 0 7
-35 c7 -34 17 -100 24 -167 3 -27 16 -103 29 -169 10 -52 37 -126 68 -191 l35
-72 -32 -94 c-41 -123 -75 -176 -192 -300 -25 -27 -42 -52 -37 -56 5 -4 56
-43 114 -86 91 -68 137 -104 235 -182 19 -16 30 -24 130 -108 59 -48 210 -181
285 -250 69 -63 492 -485 486 -485 -2 0 10 -15 27 -33 51 -53 241 -268 282
-318 11 -13 45 -54 75 -89 75 -89 72 -85 182 -225 35 -45 69 -88 76 -95 7 -8
40 -51 73 -95 34 -44 66 -83 72 -87 24 -15 50 -7 79 24 41 44 80 135 152 348
54 164 102 264 146 308 l30 31 138 -1 c126 -1 246 5 298 16 22 4 94 13 196 22
35 3 65 9 68 13 3 4 23 18 45 31 124 73 186 157 187 255 0 47 -1 53 -15 67 -7
7 -39 54 -72 103 -42 64 -59 99 -58 120 2 51 13 105 24 128 13 24 76 88 105
106 18 11 18 11 -1 27 -19 16 -19 16 10 10 36 -8 59 -14 63 -16 1 -2 5 -3 10
-4 50 -14 150 -43 392 -117 41 -13 80 -24 85 -25 6 -1 57 -16 115 -34 58 -17
130 -38 160 -46 30 -8 74 -22 98 -29 23 -8 46 -15 50 -15 9 0 45 100 39 106
-2 3 -13 7 -23 9 -25 6 -145 40 -164 47 -21 8 -191 58 -214 63 -10 2 -44 12
-75 21 -31 10 -59 18 -63 20 -5 1 -10 3 -13 4 -3 1 -8 3 -12 4 -5 2 -28 8 -53
16 -25 7 -51 14 -57 16 -7 1 -42 12 -77 23 -36 12 -73 23 -83 24 -10 2 -26 7
-35 10 -35 13 -53 19 -75 23 -12 2 -32 8 -44 12 l-22 9 22 20 c22 20 22 23 8
65 -22 65 -30 121 -31 231 -1 99 4 118 27 98 11 -9 34 -15 96 -25 26 -5 113
15 205 46 105 35 148 69 166 133 14 52 6 131 -18 167 -70 106 -147 214 -154
216 -4 2 -8 10 -8 17 0 7 -3 15 -7 17 -5 2 -37 46 -73 98 -35 52 -68 97 -72
98 -4 2 -8 9 -8 16 0 7 -9 21 -20 31 -11 10 -20 24 -20 31 0 7 -3 14 -7 16
-20 8 -94 130 -89 146 3 9 8 44 12 76 3 33 8 69 10 80 17 85 20 145 10 206
-19 112 -19 130 0 131 11 0 26 2 34 4 45 9 272 42 350 50 157 17 307 25 531
30 108 3 222 7 254 10 62 5 92 23 82 48 -8 21 -85 55 -142 63 -11 1 -54 7 -95
13 -144 20 -223 26 -470 37 -164 7 -377 12 -523 13 l-118 1 -28 63 c-40 87
-72 220 -86 358 -3 24 -7 64 -10 89 -2 25 -7 81 -10 125 -4 57 -12 88 -25 107
-11 15 -20 32 -20 38 0 5 -4 10 -8 10 -5 0 -9 6 -9 13 -1 15 -11 92 -17 127
-7 38 -16 110 -21 165 -3 28 -7 73 -10 100 -8 83 -17 244 -19 340 -3 136 -44
228 -124 273 -30 17 -101 23 -132 13z"/>
</g>
</svg>
